<svg xmlns="http://www.w3.org/2000/svg" viewBox="0 0 500 500" role="img" aria-label="学">
  <title>学</title>
 <g class="glyph-outline">
  <path class="glyph-segment cubic-segment" data-segment="curve-0" data-p0="150.16,64.59" data-c1="164.22,80.53" data-c2="178.52,98.34" data-p3="193.05,118.03" d="M150.16 64.59C164.22 80.53 178.52 98.34 193.05 118.03"/>
  <path class="glyph-segment cubic-segment" data-segment="curve-1" data-p0="193.05,118.03" data-c1="187.83,121.54" data-c2="182.62,125.06" data-p3="177.4,128.57" d="M193.05 118.03C187.83 121.54 182.62 125.06 177.4 128.57"/>
  <path class="glyph-segment cubic-segment" data-segment="curve-2" data-p0="177.4,128.57" data-c1="196.97,128.57" data-c2="216.54,128.57" data-p3="236.11,128.57" d="M177.4 128.57C196.97 128.57 216.54 128.57 236.11 128.57"/>
  <path class="glyph-segment cubic-segment" data-segment="curve-3" data-p0="236.11,128.57" data-c1="226.27,109.71" data-c2="217.19,93.77" data-p3="208.87,80.76" d="M236.11 128.57C226.27 109.71 217.19 93.77 208.87 80.76"/>
  <path class="glyph-segment cubic-segment" data-segment="curve-4" data-p0="208.87,80.76" data-c1="223.16,74.43" data-c2="237.46,68.11" data-p3="251.76,61.78" d="M208.87 80.76C223.16 74.43 237.46 68.11 251.76 61.78"/>
  <path class="glyph-segment cubic-segment" data-segment="curve-5" data-p0="251.76,61.78" data-c1="261.13,76.07" data-c2="272.15,94.59" data-p3="284.8,117.32" d="M251.76 61.78C261.13 76.07 272.15 94.59 284.8 117.32"/>
  <path class="glyph-segment cubic-segment" data-segment="curve-6" data-p0="284.8,117.32" data-c1="276.72,121.07" data-c2="268.63,124.82" data-p3="260.55,128.57" d="M284.8 117.32C276.72 121.07 268.63 124.82 260.55 128.57"/>
  <path class="glyph-segment cubic-segment" data-segment="curve-7" data-p0="260.55,128.57" data-c1="274.9,128.57" data-c2="289.26,128.57" data-p3="303.61,128.57" d="M260.55 128.57C274.9 128.57 289.26 128.57 303.61 128.57"/>
  <path class="glyph-segment cubic-segment" data-segment="curve-8" data-p0="303.61,128.57" data-c1="319.67,105.49" data-c2="333.2,85.45" data-p3="344.22,68.46" d="M303.61 128.57C319.67 105.49 333.2 85.45 344.22 68.46"/>
  <path class="glyph-segment cubic-segment" data-segment="curve-9" data-p0="344.22,68.46" data-c1="360.04,77.13" data-c2="375.86,85.8" data-p3="391.68,94.47" d="M344.22 68.46C360.04 77.13 375.86 85.8 391.68 94.47"/>
  <path class="glyph-segment cubic-segment" data-segment="curve-10" data-p0="391.68,94.47" data-c1="382.19,105.84" data-c2="372.7,117.21" data-p3="363.2,128.57" d="M391.68 94.47C382.19 105.84 372.7 117.21 363.2 128.57"/>
  <path class="glyph-segment cubic-segment" data-segment="curve-11" data-p0="363.2,128.57" data-c1="380.08,128.57" data-c2="396.95,128.57" data-p3="413.83,128.57" d="M363.2 128.57C380.08 128.57 396.95 128.57 413.83 128.57"/>
  <path class="glyph-segment cubic-segment" data-segment="curve-12" data-p0="413.83,128.57" data-c1="413.83,157.4" data-c2="413.83,186.23" data-p3="413.83,215.06" d="M413.83 128.57C413.83 157.4 413.83 186.23 413.83 215.06"/>
  <path class="glyph-segment cubic-segment" data-segment="curve-13" data-p0="413.83,215.06" data-c1="397.42,215.06" data-c2="381.02,215.06" data-p3="364.61,215.06" d="M413.83 215.06C397.42 215.06 381.02 215.06 364.61 215.06"/>
  <path class="glyph-segment cubic-segment" data-segment="curve-14" data-p0="364.61,215.06" data-c1="364.61,200.53" data-c2="364.61,186" data-p3="364.61,171.46" d="M364.61 215.06C364.61 200.53 364.61 186 364.61 171.46"/>
  <path class="glyph-segment cubic-segment" data-segment="curve-15" data-p0="364.61,171.46" data-c1="288.09,171.46" data-c2="211.56,171.46" data-p3="135.04,171.46" d="M364.61 171.46C288.09 171.46 211.56 171.46 135.04 171.46"/>
  <path class="glyph-segment cubic-segment" data-segment="curve-16" data-p0="135.04,171.46" data-c1="135.04,186" data-c2="135.04,200.53" data-p3="135.04,215.06" d="M135.04 171.46C135.04 186 135.04 200.53 135.04 215.06"/>
  <path class="glyph-segment cubic-segment" data-segment="curve-17" data-p0="135.04,215.06" data-c1="118.63,215.06" data-c2="102.23,215.06" data-p3="85.82,215.06" d="M135.04 215.06C118.63 215.06 102.23 215.06 85.82 215.06"/>
  <path class="glyph-segment cubic-segment" data-segment="curve-18" data-p0="85.82,215.06" data-c1="85.82,186.23" data-c2="85.82,157.4" data-p3="85.82,128.57" d="M85.82 215.06C85.82 186.23 85.82 157.4 85.82 128.57"/>
  <path class="glyph-segment cubic-segment" data-segment="curve-19" data-p0="85.82,128.57" data-c1="104.98,128.57" data-c2="124.14,128.57" data-p3="143.3,128.57" d="M85.82 128.57C104.98 128.57 124.14 128.57 143.3 128.57"/>
  <path class="glyph-segment cubic-segment" data-segment="curve-20" data-p0="143.3,128.57" data-c1="132.99,114.39" data-c2="122.97,101.39" data-p3="113.24,89.55" d="M143.3 128.57C132.99 114.39 122.97 101.39 113.24 89.55"/>
  <path class="glyph-segment cubic-segment" data-segment="curve-21" data-p0="113.24,89.55" data-c1="125.55,81.23" data-c2="137.85,72.91" data-p3="150.16,64.59" d="M113.24 89.55C125.55 81.23 137.85 72.91 150.16 64.59"/>
  <path class="glyph-segment cubic-segment" data-segment="curve-22" data-p0="79.84,279.04" data-c1="131.05,279.04" data-c2="182.27,279.04" data-p3="233.48,279.04" d="M79.84 279.04C131.05 279.04 182.27 279.04 233.48 279.04"/>
  <path class="glyph-segment cubic-segment" data-segment="curve-23" data-p0="233.48,279.04" data-c1="233.48,276" data-c2="233.48,272.95" data-p3="233.48,269.9" d="M233.48 279.04C233.48 276 233.48 272.95 233.48 269.9"/>
  <path class="glyph-segment cubic-segment" data-segment="curve-24" data-p0="233.48,269.9" data-c1="249.18,259.71" data-c2="264.88,249.51" data-p3="280.59,239.32" d="M233.48 269.9C249.18 259.71 264.88 249.51 280.59 239.32"/>
  <path class="glyph-segment cubic-segment" data-segment="curve-25" data-p0="280.59,239.32" data-c1="237.7,239.32" data-c2="194.8,239.32" data-p3="151.91,239.32" d="M280.59 239.32C237.7 239.32 194.8 239.32 151.91 239.32"/>
  <path class="glyph-segment cubic-segment" data-segment="curve-26" data-p0="151.91,239.32" data-c1="151.91,225.02" data-c2="151.91,210.72" data-p3="151.91,196.43" d="M151.91 239.32C151.91 225.02 151.91 210.72 151.91 196.43"/>
  <path class="glyph-segment cubic-segment" data-segment="curve-27" data-p0="151.91,196.43" data-c1="217.89,196.43" data-c2="283.87,196.43" data-p3="349.84,196.43" d="M151.91 196.43C217.89 196.43 283.87 196.43 349.84 196.43"/>
  <path class="glyph-segment cubic-segment" data-segment="curve-28" data-p0="349.84,196.43" data-c1="349.84,210.61" data-c2="349.84,224.79" data-p3="349.84,238.96" d="M349.84 196.43C349.84 210.61 349.84 224.79 349.84 238.96"/>
  <path class="glyph-segment cubic-segment" data-segment="curve-29" data-p0="349.84,238.96" data-c1="329.69,252.32" data-c2="309.53,265.68" data-p3="289.38,279.04" d="M349.84 238.96C329.69 252.32 309.53 265.68 289.38 279.04"/>
  <path class="glyph-segment cubic-segment" data-segment="curve-30" data-p0="289.38,279.04" data-c1="333.09,279.04" data-c2="376.8,279.04" data-p3="420.51,279.04" d="M289.38 279.04C333.09 279.04 376.8 279.04 420.51 279.04"/>
  <path class="glyph-segment cubic-segment" data-segment="curve-31" data-p0="420.51,279.04" data-c1="420.51,293.57" data-c2="420.51,308.11" data-p3="420.51,322.64" d="M420.51 279.04C420.51 293.57 420.51 308.11 420.51 322.64"/>
  <path class="glyph-segment cubic-segment" data-segment="curve-32" data-p0="420.51,322.64" data-c1="375.04,322.64" data-c2="329.57,322.64" data-p3="284.1,322.64" d="M420.51 322.64C375.04 322.64 329.57 322.64 284.1 322.64"/>
  <path class="glyph-segment cubic-segment" data-segment="curve-33" data-p0="284.1,322.64" data-c1="284.1,334.59" data-c2="284.1,346.54" data-p3="284.1,358.5" d="M284.1 322.64C284.1 334.59 284.1 346.54 284.1 358.5"/>
  <path class="glyph-segment cubic-segment" data-segment="curve-34" data-p0="284.1,358.5" data-c1="284.1,390.84" data-c2="266.32,409.77" data-p3="229.17,410" d="M284.1 358.5C284.1 390.84 266.32 409.77 229.17 410"/>
  <path class="glyph-segment cubic-segment" data-segment="curve-35" data-p0="229.17,410" data-c1="210.6,410.12" data-c2="191.52,410.18" data-p3="171.95,410.18" d="M229.17 410C210.6 410.12 191.52 410.18 171.95 410.18"/>
  <path class="glyph-segment cubic-segment" data-segment="curve-36" data-p0="171.95,410.18" data-c1="168.67,394" data-c2="164.69,378.54" data-p3="160,363.77" d="M171.95 410.18C168.67 394 164.69 378.54 160 363.77"/>
  <path class="glyph-segment cubic-segment" data-segment="curve-37" data-p0="160,363.77" data-c1="177.81,364.71" data-c2="194.1,365.18" data-p3="208.87,365.18" d="M160 363.77C177.81 364.71 194.1 365.18 208.87 365.18"/>
  <path class="glyph-segment cubic-segment" data-segment="curve-38" data-p0="208.87,365.18" data-c1="225.27,365.18" data-c2="233.48,358.03" data-p3="233.48,343.73" d="M208.87 365.18C225.27 365.18 233.48 358.03 233.48 343.73"/>
  <path class="glyph-segment cubic-segment" data-segment="curve-39" data-p0="233.48,343.73" data-c1="233.48,336.7" data-c2="233.48,329.67" data-p3="233.48,322.64" d="M233.48 343.73C233.48 336.7 233.48 329.67 233.48 322.64"/>
  <path class="glyph-segment cubic-segment" data-segment="curve-40" data-p0="233.48,322.64" data-c1="182.27,322.64" data-c2="131.05,322.64" data-p3="79.84,322.64" d="M233.48 322.64C182.27 322.64 131.05 322.64 79.84 322.64"/>
  <path class="glyph-segment cubic-segment" data-segment="curve-41" data-p0="79.84,322.64" data-c1="79.84,308.11" data-c2="79.84,293.57" data-p3="79.84,279.04" d="M79.84 322.64C79.84 308.11 79.84 293.57 79.84 279.04"/>
 </g>
 <g class="control-layer">
  <line class="control-handle" data-segment="curve-0" data-handle="c1" x1="150.16" y1="64.59" x2="164.22" y2="80.53"/>
  <line class="control-handle" data-segment="curve-0" data-handle="c2" x1="193.05" y1="118.03" x2="178.52" y2="98.34"/>
  <line class="control-handle" data-segment="curve-1" data-handle="c1" x1="193.05" y1="118.03" x2="187.83" y2="121.54"/>
  <line class="control-handle" data-segment="curve-1" data-handle="c2" x1="177.4" y1="128.57" x2="182.62" y2="125.06"/>
  <line class="control-handle" data-segment="curve-2" data-handle="c1" x1="177.4" y1="128.57" x2="196.97" y2="128.57"/>
  <line class="control-handle" data-segment="curve-2" data-handle="c2" x1="236.11" y1="128.57" x2="216.54" y2="128.57"/>
  <line class="control-handle" data-segment="curve-3" data-handle="c1" x1="236.11" y1="128.57" x2="226.27" y2="109.71"/>
  <line class="control-handle" data-segment="curve-3" data-handle="c2" x1="208.87" y1="80.76" x2="217.19" y2="93.77"/>
  <line class="control-handle" data-segment="curve-4" data-handle="c1" x1="208.87" y1="80.76" x2="223.16" y2="74.43"/>
  <line class="control-handle" data-segment="curve-4" data-handle="c2" x1="251.76" y1="61.78" x2="237.46" y2="68.11"/>
  <line class="control-handle" data-segment="curve-5" data-handle="c1" x1="251.76" y1="61.78" x2="261.13" y2="76.07"/>
  <line class="control-handle" data-segment="curve-5" data-handle="c2" x1="284.8" y1="117.32" x2="272.15" y2="94.59"/>
  <line class="control-handle" data-segment="curve-6" data-handle="c1" x1="284.8" y1="117.32" x2="276.72" y2="121.07"/>
  <line class="control-handle" data-segment="curve-6" data-handle="c2" x1="260.55" y1="128.57" x2="268.63" y2="124.82"/>
  <line class="control-handle" data-segment="curve-7" data-handle="c1" x1="260.55" y1="128.57" x2="274.9" y2="128.57"/>
  <line class="control-handle" data-segment="curve-7" data-handle="c2" x1="303.61" y1="128.57" x2="289.26" y2="128.57"/>
  <line class="control-handle" data-segment="curve-8" data-handle="c1" x1="303.61" y1="128.57" x2="319.67" y2="105.49"/>
  <line class="control-handle" data-segment="curve-8" data-handle="c2" x1="344.22" y1="68.46" x2="333.2" y2="85.45"/>
  <line class="control-handle" data-segment="curve-9" data-handle="c1" x1="344.22" y1="68.46" x2="360.04" y2="77.13"/>
  <line class="control-handle" data-segment="curve-9" data-handle="c2" x1="391.68" y1="94.47" x2="375.86" y2="85.8"/>
  <line class="control-handle" data-segment="curve-10" data-handle="c1" x1="391.68" y1="94.47" x2="382.19" y2="105.84"/>
  <line class="control-handle" data-segment="curve-10" data-handle="c2" x1="363.2" y1="128.57" x2="372.7" y2="117.21"/>
  <line class="control-handle" data-segment="curve-11" data-handle="c1" x1="363.2" y1="128.57" x2="380.08" y2="128.57"/>
  <line class="control-handle" data-segment="curve-11" data-handle="c2" x1="413.83" y1="128.57" x2="396.95" y2="128.57"/>
  <line class="control-handle" data-segment="curve-12" data-handle="c1" x1="413.83" y1="128.57" x2="413.83" y2="157.4"/>
  <line class="control-handle" data-segment="curve-12" data-handle="c2" x1="413.83" y1="215.06" x2="413.83" y2="186.23"/>
  <line class="control-handle" data-segment="curve-13" data-handle="c1" x1="413.83" y1="215.06" x2="397.42" y2="215.06"/>
  <line class="control-handle" data-segment="curve-13" data-handle="c2" x1="364.61" y1="215.06" x2="381.02" y2="215.06"/>
  <line class="control-handle" data-segment="curve-14" data-handle="c1" x1="364.61" y1="215.06" x2="364.61" y2="200.53"/>
  <line class="control-handle" data-segment="curve-14" data-handle="c2" x1="364.61" y1="171.46" x2="364.61" y2="186"/>
  <line class="control-handle" data-segment="curve-15" data-handle="c1" x1="364.61" y1="171.46" x2="288.09" y2="171.46"/>
  <line class="control-handle" data-segment="curve-15" data-handle="c2" x1="135.04" y1="171.46" x2="211.56" y2="171.46"/>
  <line class="control-handle" data-segment="curve-16" data-handle="c1" x1="135.04" y1="171.46" x2="135.04" y2="186"/>
  <line class="control-handle" data-segment="curve-16" data-handle="c2" x1="135.04" y1="215.06" x2="135.04" y2="200.53"/>
  <line class="control-handle" data-segment="curve-17" data-handle="c1" x1="135.04" y1="215.06" x2="118.63" y2="215.06"/>
  <line class="control-handle" data-segment="curve-17" data-handle="c2" x1="85.82" y1="215.06" x2="102.23" y2="215.06"/>
  <line class="control-handle" data-segment="curve-18" data-handle="c1" x1="85.82" y1="215.06" x2="85.82" y2="186.23"/>
  <line class="control-handle" data-segment="curve-18" data-handle="c2" x1="85.82" y1="128.57" x2="85.82" y2="157.4"/>
  <line class="control-handle" data-segment="curve-19" data-handle="c1" x1="85.82" y1="128.57" x2="104.98" y2="128.57"/>
  <line class="control-handle" data-segment="curve-19" data-handle="c2" x1="143.3" y1="128.57" x2="124.14" y2="128.57"/>
  <line class="control-handle" data-segment="curve-20" data-handle="c1" x1="143.3" y1="128.57" x2="132.99" y2="114.39"/>
  <line class="control-handle" data-segment="curve-20" data-handle="c2" x1="113.24" y1="89.55" x2="122.97" y2="101.39"/>
  <line class="control-handle" data-segment="curve-21" data-handle="c1" x1="113.24" y1="89.55" x2="125.55" y2="81.23"/>
  <line class="control-handle" data-segment="curve-21" data-handle="c2" x1="150.16" y1="64.59" x2="137.85" y2="72.91"/>
  <line class="control-handle" data-segment="curve-22" data-handle="c1" x1="79.84" y1="279.04" x2="131.05" y2="279.04"/>
  <line class="control-handle" data-segment="curve-22" data-handle="c2" x1="233.48" y1="279.04" x2="182.27" y2="279.04"/>
  <line class="control-handle" data-segment="curve-23" data-handle="c1" x1="233.48" y1="279.04" x2="233.48" y2="276"/>
  <line class="control-handle" data-segment="curve-23" data-handle="c2" x1="233.48" y1="269.9" x2="233.48" y2="272.95"/>
  <line class="control-handle" data-segment="curve-24" data-handle="c1" x1="233.48" y1="269.9" x2="249.18" y2="259.71"/>
  <line class="control-handle" data-segment="curve-24" data-handle="c2" x1="280.59" y1="239.32" x2="264.88" y2="249.51"/>
  <line class="control-handle" data-segment="curve-25" data-handle="c1" x1="280.59" y1="239.32" x2="237.7" y2="239.32"/>
  <line class="control-handle" data-segment="curve-25" data-handle="c2" x1="151.91" y1="239.32" x2="194.8" y2="239.32"/>
  <line class="control-handle" data-segment="curve-26" data-handle="c1" x1="151.91" y1="239.32" x2="151.91" y2="225.02"/>
  <line class="control-handle" data-segment="curve-26" data-handle="c2" x1="151.91" y1="196.43" x2="151.91" y2="210.72"/>
  <line class="control-handle" data-segment="curve-27" data-handle="c1" x1="151.91" y1="196.43" x2="217.89" y2="196.43"/>
  <line class="control-handle" data-segment="curve-27" data-handle="c2" x1="349.84" y1="196.43" x2="283.87" y2="196.43"/>
  <line class="control-handle" data-segment="curve-28" data-handle="c1" x1="349.84" y1="196.43" x2="349.84" y2="210.61"/>
  <line class="control-handle" data-segment="curve-28" data-handle="c2" x1="349.84" y1="238.96" x2="349.84" y2="224.79"/>
  <line class="control-handle" data-segment="curve-29" data-handle="c1" x1="349.84" y1="238.96" x2="329.69" y2="252.32"/>
  <line class="control-handle" data-segment="curve-29" data-handle="c2" x1="289.38" y1="279.04" x2="309.53" y2="265.68"/>
  <line class="control-handle" data-segment="curve-30" data-handle="c1" x1="289.38" y1="279.04" x2="333.09" y2="279.04"/>
  <line class="control-handle" data-segment="curve-30" data-handle="c2" x1="420.51" y1="279.04" x2="376.8" y2="279.04"/>
  <line class="control-handle" data-segment="curve-31" data-handle="c1" x1="420.51" y1="279.04" x2="420.51" y2="293.57"/>
  <line class="control-handle" data-segment="curve-31" data-handle="c2" x1="420.51" y1="322.64" x2="420.51" y2="308.11"/>
  <line class="control-handle" data-segment="curve-32" data-handle="c1" x1="420.51" y1="322.64" x2="375.04" y2="322.64"/>
  <line class="control-handle" data-segment="curve-32" data-handle="c2" x1="284.1" y1="322.64" x2="329.57" y2="322.64"/>
  <line class="control-handle" data-segment="curve-33" data-handle="c1" x1="284.1" y1="322.64" x2="284.1" y2="334.59"/>
  <line class="control-handle" data-segment="curve-33" data-handle="c2" x1="284.1" y1="358.5" x2="284.1" y2="346.54"/>
  <line class="control-handle" data-segment="curve-34" data-handle="c1" x1="284.1" y1="358.5" x2="284.1" y2="390.84"/>
  <line class="control-handle" data-segment="curve-34" data-handle="c2" x1="229.17" y1="410" x2="266.32" y2="409.77"/>
  <line class="control-handle" data-segment="curve-35" data-handle="c1" x1="229.17" y1="410" x2="210.6" y2="410.12"/>
  <line class="control-handle" data-segment="curve-35" data-handle="c2" x1="171.95" y1="410.18" x2="191.52" y2="410.18"/>
  <line class="control-handle" data-segment="curve-36" data-handle="c1" x1="171.95" y1="410.18" x2="168.67" y2="394"/>
  <line class="control-handle" data-segment="curve-36" data-handle="c2" x1="160" y1="363.77" x2="164.69" y2="378.54"/>
  <line class="control-handle" data-segment="curve-37" data-handle="c1" x1="160" y1="363.77" x2="177.81" y2="364.71"/>
  <line class="control-handle" data-segment="curve-37" data-handle="c2" x1="208.87" y1="365.18" x2="194.1" y2="365.18"/>
  <line class="control-handle" data-segment="curve-38" data-handle="c1" x1="208.87" y1="365.18" x2="225.27" y2="365.18"/>
  <line class="control-handle" data-segment="curve-38" data-handle="c2" x1="233.48" y1="343.73" x2="233.48" y2="358.03"/>
  <line class="control-handle" data-segment="curve-39" data-handle="c1" x1="233.48" y1="343.73" x2="233.48" y2="336.7"/>
  <line class="control-handle" data-segment="curve-39" data-handle="c2" x1="233.48" y1="322.64" x2="233.48" y2="329.67"/>
  <line class="control-handle" data-segment="curve-40" data-handle="c1" x1="233.48" y1="322.64" x2="182.27" y2="322.64"/>
  <line class="control-handle" data-segment="curve-40" data-handle="c2" x1="79.84" y1="322.64" x2="131.05" y2="322.64"/>
  <line class="control-handle" data-segment="curve-41" data-handle="c1" x1="79.84" y1="322.64" x2="79.84" y2="308.11"/>
  <line class="control-handle" data-segment="curve-41" data-handle="c2" x1="79.84" y1="279.04" x2="79.84" y2="293.57"/>
  <circle class="control-point" data-segment="curve-0" data-control="c1" cx="164.22" cy="80.53" r="2.6"/>
  <circle class="control-point" data-segment="curve-0" data-control="c2" cx="178.52" cy="98.34" r="2.6"/>
  <circle class="control-point" data-segment="curve-1" data-control="c1" cx="187.83" cy="121.54" r="2.6"/>
  <circle class="control-point" data-segment="curve-1" data-control="c2" cx="182.62" cy="125.06" r="2.6"/>
  <circle class="control-point" data-segment="curve-2" data-control="c1" cx="196.97" cy="128.57" r="2.6"/>
  <circle class="control-point" data-segment="curve-2" data-control="c2" cx="216.54" cy="128.57" r="2.6"/>
  <circle class="control-point" data-segment="curve-3" data-control="c1" cx="226.27" cy="109.71" r="2.6"/>
  <circle class="control-point" data-segment="curve-3" data-control="c2" cx="217.19" cy="93.77" r="2.6"/>
  <circle class="control-point" data-segment="curve-4" data-control="c1" cx="223.16" cy="74.43" r="2.6"/>
  <circle class="control-point" data-segment="curve-4" data-control="c2" cx="237.46" cy="68.11" r="2.6"/>
  <circle class="control-point" data-segment="curve-5" data-control="c1" cx="261.13" cy="76.07" r="2.6"/>
  <circle class="control-point" data-segment="curve-5" data-control="c2" cx="272.15" cy="94.59" r="2.6"/>
  <circle class="control-point" data-segment="curve-6" data-control="c1" cx="276.72" cy="121.07" r="2.6"/>
  <circle class="control-point" data-segment="curve-6" data-control="c2" cx="268.63" cy="124.82" r="2.6"/>
  <circle class="control-point" data-segment="curve-7" data-control="c1" cx="274.9" cy="128.57" r="2.6"/>
  <circle class="control-point" data-segment="curve-7" data-control="c2" cx="289.26" cy="128.57" r="2.6"/>
  <circle class="control-point" data-segment="curve-8" data-control="c1" cx="319.67" cy="105.49" r="2.6"/>
  <circle class="control-point" data-segment="curve-8" data-control="c2" cx="333.2" cy="85.45" r="2.6"/>
  <circle class="control-point" data-segment="curve-9" data-control="c1" cx="360.04" cy="77.13" r="2.6"/>
  <circle class="control-point" data-segment="curve-9" data-control="c2" cx="375.86" cy="85.8" r="2.6"/>
  <circle class="control-point" data-segment="curve-10" data-control="c1" cx="382.19" cy="105.84" r="2.6"/>
  <circle class="control-point" data-segment="curve-10" data-control="c2" cx="372.7" cy="117.21" r="2.6"/>
  <circle class="control-point" data-segment="curve-11" data-control="c1" cx="380.08" cy="128.57" r="2.6"/>
  <circle class="control-point" data-segment="curve-11" data-control="c2" cx="396.95" cy="128.57" r="2.6"/>
  <circle class="control-point" data-segment="curve-12" data-control="c1" cx="413.83" cy="157.4" r="2.6"/>
  <circle class="control-point" data-segment="curve-12" data-control="c2" cx="413.83" cy="186.23" r="2.6"/>
  <circle class="control-point" data-segment="curve-13" data-control="c1" cx="397.42" cy="215.06" r="2.6"/>
  <circle class="control-point" data-segment="curve-13" data-control="c2" cx="381.02" cy="215.06" r="2.6"/>
  <circle class="control-point" data-segment="curve-14" data-control="c1" cx="364.61" cy="200.53" r="2.6"/>
  <circle class="control-point" data-segment="curve-14" data-control="c2" cx="364.61" cy="186" r="2.6"/>
  <circle class="control-point" data-segment="curve-15" data-control="c1" cx="288.09" cy="171.46" r="2.6"/>
  <circle class="control-point" data-segment="curve-15" data-control="c2" cx="211.56" cy="171.46" r="2.6"/>
  <circle class="control-point" data-segment="curve-16" data-control="c1" cx="135.04" cy="186" r="2.6"/>
  <circle class="control-point" data-segment="curve-16" data-control="c2" cx="135.04" cy="200.53" r="2.6"/>
  <circle class="control-point" data-segment="curve-17" data-control="c1" cx="118.63" cy="215.06" r="2.6"/>
  <circle class="control-point" data-segment="curve-17" data-control="c2" cx="102.23" cy="215.06" r="2.6"/>
  <circle class="control-point" data-segment="curve-18" data-control="c1" cx="85.82" cy="186.23" r="2.6"/>
  <circle class="control-point" data-segment="curve-18" data-control="c2" cx="85.82" cy="157.4" r="2.6"/>
  <circle class="control-point" data-segment="curve-19" data-control="c1" cx="104.98" cy="128.57" r="2.6"/>
  <circle class="control-point" data-segment="curve-19" data-control="c2" cx="124.14" cy="128.57" r="2.6"/>
  <circle class="control-point" data-segment="curve-20" data-control="c1" cx="132.99" cy="114.39" r="2.6"/>
  <circle class="control-point" data-segment="curve-20" data-control="c2" cx="122.97" cy="101.39" r="2.6"/>
  <circle class="control-point" data-segment="curve-21" data-control="c1" cx="125.55" cy="81.23" r="2.6"/>
  <circle class="control-point" data-segment="curve-21" data-control="c2" cx="137.85" cy="72.91" r="2.6"/>
  <circle class="control-point" data-segment="curve-22" data-control="c1" cx="131.05" cy="279.04" r="2.6"/>
  <circle class="control-point" data-segment="curve-22" data-control="c2" cx="182.27" cy="279.04" r="2.6"/>
  <circle class="control-point" data-segment="curve-23" data-control="c1" cx="233.48" cy="276" r="2.6"/>
  <circle class="control-point" data-segment="curve-23" data-control="c2" cx="233.48" cy="272.95" r="2.6"/>
  <circle class="control-point" data-segment="curve-24" data-control="c1" cx="249.18" cy="259.71" r="2.6"/>
  <circle class="control-point" data-segment="curve-24" data-control="c2" cx="264.88" cy="249.51" r="2.6"/>
  <circle class="control-point" data-segment="curve-25" data-control="c1" cx="237.7" cy="239.32" r="2.6"/>
  <circle class="control-point" data-segment="curve-25" data-control="c2" cx="194.8" cy="239.32" r="2.6"/>
  <circle class="control-point" data-segment="curve-26" data-control="c1" cx="151.91" cy="225.02" r="2.6"/>
  <circle class="control-point" data-segment="curve-26" data-control="c2" cx="151.91" cy="210.72" r="2.6"/>
  <circle class="control-point" data-segment="curve-27" data-control="c1" cx="217.89" cy="196.43" r="2.6"/>
  <circle class="control-point" data-segment="curve-27" data-control="c2" cx="283.87" cy="196.43" r="2.6"/>
  <circle class="control-point" data-segment="curve-28" data-control="c1" cx="349.84" cy="210.61" r="2.6"/>
  <circle class="control-point" data-segment="curve-28" data-control="c2" cx="349.84" cy="224.79" r="2.6"/>
  <circle class="control-point" data-segment="curve-29" data-control="c1" cx="329.69" cy="252.32" r="2.6"/>
  <circle class="control-point" data-segment="curve-29" data-control="c2" cx="309.53" cy="265.68" r="2.6"/>
  <circle class="control-point" data-segment="curve-30" data-control="c1" cx="333.09" cy="279.04" r="2.6"/>
  <circle class="control-point" data-segment="curve-30" data-control="c2" cx="376.8" cy="279.04" r="2.6"/>
  <circle class="control-point" data-segment="curve-31" data-control="c1" cx="420.51" cy="293.57" r="2.6"/>
  <circle class="control-point" data-segment="curve-31" data-control="c2" cx="420.51" cy="308.11" r="2.6"/>
  <circle class="control-point" data-segment="curve-32" data-control="c1" cx="375.04" cy="322.64" r="2.6"/>
  <circle class="control-point" data-segment="curve-32" data-control="c2" cx="329.57" cy="322.64" r="2.6"/>
  <circle class="control-point" data-segment="curve-33" data-control="c1" cx="284.1" cy="334.59" r="2.6"/>
  <circle class="control-point" data-segment="curve-33" data-control="c2" cx="284.1" cy="346.54" r="2.6"/>
  <circle class="control-point" data-segment="curve-34" data-control="c1" cx="284.1" cy="390.84" r="2.6"/>
  <circle class="control-point" data-segment="curve-34" data-control="c2" cx="266.32" cy="409.77" r="2.6"/>
  <circle class="control-point" data-segment="curve-35" data-control="c1" cx="210.6" cy="410.12" r="2.6"/>
  <circle class="control-point" data-segment="curve-35" data-control="c2" cx="191.52" cy="410.18" r="2.6"/>
  <circle class="control-point" data-segment="curve-36" data-control="c1" cx="168.67" cy="394" r="2.6"/>
  <circle class="control-point" data-segment="curve-36" data-control="c2" cx="164.69" cy="378.54" r="2.6"/>
  <circle class="control-point" data-segment="curve-37" data-control="c1" cx="177.81" cy="364.71" r="2.6"/>
  <circle class="control-point" data-segment="curve-37" data-control="c2" cx="194.1" cy="365.18" r="2.6"/>
  <circle class="control-point" data-segment="curve-38" data-control="c1" cx="225.27" cy="365.18" r="2.6"/>
  <circle class="control-point" data-segment="curve-38" data-control="c2" cx="233.48" cy="358.03" r="2.6"/>
  <circle class="control-point" data-segment="curve-39" data-control="c1" cx="233.48" cy="336.7" r="2.6"/>
  <circle class="control-point" data-segment="curve-39" data-control="c2" cx="233.48" cy="329.67" r="2.6"/>
  <circle class="control-point" data-segment="curve-40" data-control="c1" cx="182.27" cy="322.64" r="2.6"/>
  <circle class="control-point" data-segment="curve-40" data-control="c2" cx="131.05" cy="322.64" r="2.6"/>
  <circle class="control-point" data-segment="curve-41" data-control="c1" cx="79.84" cy="308.11" r="2.6"/>
  <circle class="control-point" data-segment="curve-41" data-control="c2" cx="79.84" cy="293.57" r="2.6"/>
 </g>
</svg>
